<?xml version="1.0" encoding="utf-8"?>
<!-- Generator: Adobe Illustrator 16.0.4, SVG Export Plug-In . SVG Version: 6.00 Build 0)  -->
<!DOCTYPE svg PUBLIC "-//W3C//DTD SVG 1.1//EN" "http://www.w3.org/Graphics/SVG/1.1/DTD/svg11.dtd">
<svg version="1.1" id="Layer_1" xmlns="http://www.w3.org/2000/svg" xmlns:xlink="http://www.w3.org/1999/xlink" x="0px" y="0px"
	 width="188.661px" height="58.062px" viewBox="0 0 188.661 58.062" enable-background="new 0 0 188.661 58.062"
	 xml:space="preserve">
<g>
	<g>
		<g>
			<path fill="#C60006" d="M21.377,29.988c-2.189-0.283-2.105-1.732-2.868-2.31c-1.375-1.038-3.129-0.584-4.434,0.07
				c0,0,1.865-0.265,2.82,0.323c-2.129-0.416-4.023,1.943-4.023,1.943s2.115-1.271,3.797-0.942
				C17.679,29.27,18.872,31.184,21.377,29.988z"/>
		</g>
		<g>
			<path fill="#C60006" d="M41.839,18.573H30.745c-0.701-0.156-1.255-0.386-1.516-0.677c-0.835-0.933-0.812-1.339-1.279-1.777
				c-0.946-0.893-2.768-0.585-2.768-0.585s1.547,0.135,2.004,1.465c0.267,0.78,0.12,1.615,1.179,2.185c0,0-0.507,0.084-0.952-0.246
				c-2.103-1.556-2.635-1.028-4.885-0.755c-2.248,0.276-2.963-1.864-2.963-1.864c-0.417,4.207,5.816,2.086,5.413,4.297
				c-0.266,1.464-3.948-0.346-3.948-0.346c0.213,0.481,0.807,2.455,4.628,2.129c-3.633,2.137-4.343,0.513-6.302,0.01
				c-1.961-0.502-2.541,0.876-5.112,0.936c-2.573,0.061-3.46-1.851-3.46-1.851c2.074,4.776,5.789,2.593,7.776,3.593
				c3.967,2,3.204,6.042,8.056,6.56c0.304,0.032,0.622,0.047,0.953,0.04l-0.861,2.184c-0.081-0.056-0.148-0.117-0.191-0.186
				c-0.392-0.638-0.35-0.941-0.575-1.236c-0.456-0.598-1.478-0.238-1.478-0.238s0.84-0.01,0.996,0.949
				c0.092,0.563-0.048,1.194,0.492,1.545c0,0-0.284,0.098-0.505-0.116c-1.042-1.01-1.372-0.577-2.624-0.217
				c-1.253,0.365-1.494-1.177-1.494-1.177c-0.527,3.165,3.041,1.141,2.662,2.817c-0.25,1.108-2.139,0.024-2.139,0.024
				c0.083,0.343,0.268,1.771,2.386,1.256c-2.143,1.851-2.416,0.691-3.455,0.455c-1.04-0.235-1.455,0.834-2.87,1.058
				c-1.415,0.23-1.765-1.133-1.765-1.133c0.797,3.414,2.989,1.524,4.008,2.13c2.033,1.207-0.661,3.535,2.783,3.62
				c0.232,0.006,0.506,0.01,0.804,0h3.78l3.382-8.574h4.514c4.654,0,9.233-3.359,11.139-8.188
				C48.463,21.83,46.491,18.573,41.839,18.573z M41.859,26.433c-2.215,4.156-6.997,2.94-8.091,2.974
				c-0.879,0.026-1.171,0.325-1.639,0.362c-0.947,0.077-1.51-0.688-1.51-0.688s0.726,0.471,1.744,0.028
				c0.595-0.26,1.055-0.686,1.848-0.578c0,0-0.157-0.211-0.547-0.217c-1.84-0.021-1.731-0.442-2.491-1.338
				c-0.761-0.895-2.39-0.177-2.39-0.177c2.447-2.038,3.708,1.058,4.917-0.076c0.802-0.751-1.848-1.2-1.848-1.2
				c0.387-0.144,1.861-0.828,3.241,0.63c-0.173-2.208-1.479-1.723-2.604-2.168c-1.124-0.448-0.504-1.267-1.534-2.177
				c-1.028-0.909-2.584-0.354-2.584-0.354c3.831-1.438,4.01,0.819,5.457,1.051c2.886,0.462,5.09-1.623,7.42-0.188
				C42.299,22.964,43.039,24.22,41.859,26.433z"/>
		</g>
	</g>
	<g>
		<path fill="#C60006" d="M29.031,58.062C13.023,58.062,0,45.039,0,29.03C0,13.023,13.023,0,29.031,0s29.032,13.023,29.032,29.03
			C58.063,45.039,45.039,58.062,29.031,58.062z M29.031,0.699C13.409,0.699,0.7,13.409,0.7,29.03
			c0,15.623,12.709,28.332,28.332,28.332S57.362,44.653,57.362,29.03C57.362,13.409,44.653,0.699,29.031,0.699z"/>
	</g>
</g>
<g>
	<path fill="#C60006" d="M89.215,24.007c0,2.59-0.88,4.578-2.642,5.961c-1.76,1.382-4.254,2.073-7.482,2.073h-4.145v11.076h-1.871
		V16.303h6.566C86.023,16.302,89.215,18.871,89.215,24.007z M74.946,30.425h3.687c3.02,0,5.203-0.497,6.548-1.495
		c1.345-0.996,2.018-2.612,2.018-4.851c0-2.066-0.636-3.598-1.908-4.594c-1.271-0.998-3.24-1.495-5.906-1.495h-4.439V30.425
		L74.946,30.425z"/>
	<path fill="#C60006" d="M108.492,43.117v-12.93c0-2.005-0.423-3.463-1.266-4.375c-0.844-0.912-2.152-1.367-3.926-1.367
		c-2.384,0-4.129,0.603-5.235,1.807s-1.66,3.157-1.66,5.86v11.004h-1.816V14.579h1.816v9.078l-0.092,2.55h0.128
		c0.747-1.199,1.688-2.066,2.825-2.605c1.137-0.538,2.55-0.807,4.236-0.807c4.524,0,6.787,2.427,6.787,7.282v13.039L108.492,43.117
		L108.492,43.117z"/>
	<path fill="#C60006" d="M124.797,43.483c-2.897,0-5.156-0.892-6.775-2.676c-1.623-1.786-2.432-4.286-2.432-7.501
		c0-3.181,0.783-5.726,2.348-7.64c1.564-1.914,3.674-2.871,6.327-2.871c2.348,0,4.2,0.82,5.557,2.458
		c1.357,1.638,2.037,3.864,2.037,6.675v1.468h-14.36c0.023,2.738,0.662,4.829,1.916,6.271c1.254,1.443,3.048,2.165,5.383,2.165
		c1.137,0,2.137-0.08,2.999-0.238c0.862-0.159,1.953-0.502,3.274-1.027v1.65c-1.125,0.489-2.165,0.823-3.119,1
		C126.998,43.396,125.946,43.483,124.797,43.483z M124.265,24.41c-1.92,0-3.459,0.632-4.621,1.897
		c-1.162,1.266-1.84,3.09-2.035,5.475h12.325c0-2.312-0.502-4.118-1.504-5.419C127.425,25.06,126.038,24.41,124.265,24.41z"/>
	<path fill="#C60006" d="M145.413,43.483c-2.897,0-5.158-0.892-6.777-2.676c-1.62-1.786-2.431-4.286-2.431-7.501
		c0-3.181,0.783-5.726,2.348-7.64c1.565-1.914,3.675-2.871,6.329-2.871c2.348,0,4.2,0.82,5.558,2.458
		c1.356,1.638,2.035,3.864,2.035,6.675v1.468h-14.362c0.023,2.738,0.663,4.829,1.916,6.271c1.255,1.443,3.049,2.165,5.385,2.165
		c1.137,0,2.137-0.08,2.998-0.238c0.862-0.159,1.953-0.502,3.273-1.027v1.65c-1.124,0.489-2.162,0.823-3.116,1
		C147.613,43.396,146.562,43.483,145.413,43.483z M144.881,24.41c-1.92,0-3.46,0.632-4.621,1.897
		c-1.163,1.266-1.841,3.09-2.036,5.475h12.323c0-2.312-0.499-4.118-1.503-5.419C148.041,25.06,146.654,24.41,144.881,24.41z"/>
	<path fill="#C60006" d="M162.34,43.117l-7.702-19.936h1.871l5.152,13.554c0.687,1.736,1.199,3.252,1.543,4.549h0.108
		c0.504-1.664,1.016-3.191,1.541-4.586l5.154-13.517h1.871l-7.703,19.936H162.34z"/>
	<path fill="#C60006" d="M187.321,43.117l-0.458-3.155h-0.146c-1.002,1.285-2.034,2.192-3.091,2.726
		c-1.057,0.531-2.308,0.796-3.75,0.796c-1.958,0-3.479-0.501-4.567-1.505c-1.088-1.002-1.632-2.389-1.632-4.163
		c0-1.943,0.81-3.453,2.43-4.53c1.619-1.076,3.965-1.645,7.035-1.704l3.795-0.11v-1.321c0-1.896-0.384-3.326-1.154-4.292
		c-0.77-0.965-2.013-1.448-3.725-1.448c-1.847,0-3.759,0.513-5.739,1.54l-0.679-1.577c2.188-1.027,4.354-1.542,6.492-1.542
		c2.188,0,3.824,0.568,4.906,1.707c1.082,1.137,1.623,2.911,1.623,5.319v13.26L187.321,43.117L187.321,43.117z M179.984,41.833
		c2.128,0,3.807-0.608,5.036-1.824c1.229-1.217,1.843-2.907,1.843-5.071v-1.962l-3.484,0.146c-2.801,0.134-4.796,0.571-5.988,1.311
		c-1.192,0.74-1.787,1.893-1.787,3.457c0,1.247,0.381,2.218,1.145,2.909C177.513,41.488,178.591,41.833,179.984,41.833z"/>
</g>
</svg>
